<svg width="220" height="32" viewBox="0 0 220 32" fill="none" xmlns="http://www.w3.org/2000/svg">
  <rect x="1" y="1" width="30" height="30" rx="8" fill="#0E1A2A" stroke="#5DA9FF" stroke-opacity="0.45"/>
  <path d="M11 11H16V21C16 24.2 13.8 26 10.8 26C9.3 26 8 25.7 7 25.1L8.2 21.8C8.9 22.2 9.7 22.4 10.4 22.4C11.4 22.4 12 21.8 12 20.6V11H11Z" fill="#F8FAFC"/>
  <path d="M20 11H25.7C28.6 11 30.3 12.5 30.3 14.8C30.3 16.5 29.4 17.7 27.9 18.3L31 23.9H26.5L24.1 19.3H24V23.9H20V11ZM24 16.6H25.2C26.2 16.6 26.8 16.1 26.8 15.2C26.8 14.4 26.2 13.9 25.2 13.9H24V16.6Z" fill="#F8FAFC"/>
  <text x="42" y="14" fill="#F8FAFC" font-family="Inter, system-ui, -apple-system, Segoe UI, sans-serif" font-size="12" letter-spacing="0.22em">JVSEO</text>
  <text x="42" y="27" fill="#94A3B8" font-family="Inter, system-ui, -apple-system, Segoe UI, sans-serif" font-size="9" letter-spacing="0.28em">AGENCY</text>
</svg>
